<svg version="1.1" id="svg-files" xmlns="http://www.w3.org/2000/svg" xmlns:xlink="http://www.w3.org/1999/xlink" x="0px" y="0px"
	 width="100%" height="100%" viewBox="0 0 567 430" style="enable-background:new 0 0 517 430;" xml:space="preserve" class="example"
	 preserveAspectRatio="xMaxYMin meet">
<style type="text/css">
<![CDATA[
	.svg-logo, .file-icon {
	  -ms-transform-origin: center center;
	  -webkit-transform-origin: center center;
	  transform-origin: center center;}
	.file-icon {display: none;}
	.st1{fill:#E6E7E8;}
	.st1b{fill:#cfd1d3;}
	.st2{fill:#DF4431;stroke:#E6E7E8;stroke-width:2;stroke-miterlimit:10;}
	.st3{fill:#2054B2;}
	.st4{fill:#F1F2F2;}
	.st5{fill:#F6B502;}
	.st6{fill:none;stroke:#FFFFFF;stroke-width:5;stroke-miterlimit:10;}
	.st7{fill:#FB7659;}
	.st8{opacity:0.2;}
	.st9{opacity:0.4;fill:#231F20;}
	.st10{fill:#FF7300;}
	.st11{fill:#FFE25E;}
	.st12{fill:#FFFFFF;}
	.st13{fill:none;}
	.st14{fill:#CC338E;}
	.st15{fill:#9EC2FF;}
	.st16{fill:#3980FC;}
	.st17{opacity:0.4;fill:#FFFFFF;}
	.st18{fill:#029D55;}
	.st19{fill:#D89F01;}
	.st20{display:none;}
	.st21{fill:#DF4431;stroke:#DF4431;stroke-width:1.875;stroke-miterlimit:1;}
	.st22{fill:#DF4431;}
	.st22b{fill:#c31209;}
	.st23{fill:#fc4e1e;}
	.st24{fill:#fd9827;}

	.logo-st0{fill:url(#SVGID_1_);}
	.logo-st1{fill:url(#SVGID_2_);}
	.logo-st2{fill:#0DA960;}
	.logo-st3{fill:#2d6fdd;}
	.logo-st4{fill:#e5b93c;}
	.logo-st5{fill:#0c9b57;}
]]>
</style>

<g class="svg-logo">
	<polygon class="logo-st2" points="213.2,275.2 189,233.3 234.3,154.8 258.5,196.7"/>
	<radialGradient id="SVGID_1_" cx="-254.8198" cy="705.8359" r="82.9784" gradientTransform="matrix(2.827 1.6322 -1.6322 2.827 2092.1199 -1494.5786)" gradientUnits="userSpaceOnUse">
		<stop  offset="0" style="stop-color:#4387FD"/>
		<stop  offset="0.65" style="stop-color:#3078F0"/>
		<stop  offset="0.9099" style="stop-color:#2B72EA"/>
		<stop  offset="1" style="stop-color:#286EE6"/>
	</radialGradient>
	<polygon class="logo-st0" points="213.2,275.2 237.4,233.3 328,233.3 303.8,275.2"/>
	<radialGradient id="SVGID_2_" cx="-254.8174" cy="705.8369" r="82.973" gradientTransform="matrix(2.827 1.6322 -1.6322 2.827 2092.1199 -1494.5786)" gradientUnits="userSpaceOnUse">
		<stop  offset="0" style="stop-color:#FFD24D"/>
		<stop  offset="1" style="stop-color:#F6C338"/>
	</radialGradient>
	<polygon class="logo-st1" points="328,233.3 279.6,233.3 234.3,154.8 282.7,154.8"/>
	<polygon class="logo-st3" points="258.5,233.3 237.4,233.3 247.9,215 213.2,275.2"/>
	<polygon class="logo-st4" points="279.6,233.3 328,233.3 269.1,215"/>
	<polygon class="logo-st5" points="247.9,215 258.5,196.7 234.3,154.8"/>
</g>

<g id="id" class="file-icon" data-curve="file_6">
	<g>
		<polygon class="st14" points="85,0 110,25 110,140 0,140 0,0"/>
	</g>
	<polygon class="st9" points="85,25 110,50 110,25"/>
	<polyline class="st17" points="85,0 85,25 110,25 85,0"/>
	<g>
		<rect x="10" y="25" class="st13" width="90" height="90"/>
		<g>
			<rect x="35.2" y="50.6" class="st12" width="7.4" height="40.3"/>
			<path class="st12" d="M59.7,91.6c3.9,0,7.1-2,8.7-5.3h0.1l0.3,4.6h6c-0.1-2-0.2-5.2-0.2-8.2V48.4h-6.7v16.5h-0.1
				c-1.2-2.2-3.8-3.8-7.5-3.8c-6.4,0-12,5.8-11.9,15.6C48.3,85.6,53.3,91.6,59.7,91.6z M61.9,66.8c3.1,0,5.2,2.3,5.8,5.2
				c0.1,0.6,0.2,1.3,0.2,1.9v4.4c0,0.8-0.1,1.5-0.2,2.2c-0.7,3.2-3.1,5.2-5.8,5.2c-4.3,0-6.7-3.9-6.7-9.2
				C55.1,71,57.6,66.8,61.9,66.8z"/>
		</g>
	</g>
</g>
<g id="ps" class="file-icon" data-curve="file_7">
	<g>
		<polygon class="st16" points="85,0 110,25 110,140 0,140 0,0"/>
	</g>
	<polygon class="st3" points="85,25 110,50 110,25"/>
	<polyline class="st15" points="85,0 85,25 110,25 85,0"/>
	<g>
		<g>
			<path class="st12" d="M38,74.8c1,0.2,2.2,0.2,3.6,0.2c5.2,0,9.8-1.4,12.7-4.3c2.3-2.2,3.5-5.3,3.5-9.2c0-3.8-1.6-6.9-3.9-8.9
				c-2.6-2.2-6.5-3.3-11.9-3.3c-5,0-8.6,0.4-11.2,0.8V90H38V74.8z M38,55.3c0.8-0.2,2.2-0.4,4.2-0.4c5.1,0,8.2,2.4,8.2,6.9
				c0,4.7-3.3,7.4-8.9,7.4c-1.5,0-2.7-0.1-3.6-0.3V55.3z"/>
			<path class="st12" d="M67.5,85.3c-2.6,0-5.8-1.1-7.5-2.1l-1.4,5.3c2.2,1.2,5.3,2.1,8.9,2.1c7.7,0,11.8-3.9,11.8-9.2
				c-0.1-4.3-2.5-7-7.8-8.9c-3.7-1.3-5.1-2.2-5.1-4.1c0-1.8,1.4-3.1,4.1-3.1c2.6,0,4.9,1,6.2,1.7l1.4-5.2c-1.7-0.9-4.5-1.7-7.7-1.7
				c-6.8,0-11,4-11,9.2c-0.1,3.4,2.3,6.5,8,8.5c3.6,1.3,4.8,2.3,4.8,4.2C72.2,84,70.8,85.3,67.5,85.3z"/>
		</g>
		<rect x="10" y="25" class="st13" width="90" height="90"/>
	</g>
</g>
<g id="ai" class="file-icon" data-curve="file_5">
	<g>
		<polygon class="st5" points="85,0 110,25 110,140 0,140 0,0"/>
	</g>
	<polygon class="st19" points="85,25 110,50 110,25"/>
	<polyline class="st11" points="85,0 85,25 110,25 85,0"/>
	<g>
		<g>
			<path class="st12" d="M73.9,57.3c2.6,0,4.2-1.7,4.2-3.9c-0.1-2.3-1.6-4-4.1-4c-2.5,0-4.1,1.7-4.1,4
				C69.8,55.6,71.4,57.3,73.9,57.3z"/>
			<rect x="70.2" y="61.5" class="st12" width="7.4" height="29.1"/>
			<path class="st12" d="M43,79.2h12.8l3.6,11.4h7.9L54.2,50.3h-9.4L31.9,90.6h7.6L43,79.2z M47.3,63.7c0.7-2.4,1.3-5.2,1.9-7.5h0.1
				c0.6,2.3,1.3,5.1,2,7.5l3.2,9.9H44.2L47.3,63.7z"/>
		</g>
		<rect x="10" y="25" class="st13" width="90" height="90"/>
	</g>
</g>
<g id="video" class="file-icon" data-curve="file_8">
	<polyline class="st22" points="64.8,0 0,0 0,140 110,140 110,25 85,0 64.8,0"/>
	<polygon class="st22b" points="85,25 110,50 110,25"/>
	<polyline class="st7" points="85,0 85,0 85,25 110,25 85,0"/>
	<g>
		<g>
			<polygon class="st12" points="31.4,52 22,52 22,46 29.1,46"/>
			<polygon class="st12" points="84.5,46 89,46 89,52 86.8,52"/>
			<polygon class="st12" points="44.4,52 34.9,52 32.6,46 42,46"/>
			<polygon class="st12" points="57.3,52 47.9,52 45.5,46 55,46"/>
			<polygon class="st12" points="70.3,52 60.9,52 58.5,46 68,46"/>
			<polygon class="st12" points="83.3,52 73.9,52 71.5,46 81,46"/>
			<path class="st12" d="M22,55v40.8h60.4l6.6-5.6V55H22z"/>
		</g>
		<rect x="27" y="61" class="st22" width="56" height="4"/>
	</g>
</g>
<g id="pdf" class="file-icon" data-curve="file_4">
	<g>
		<polygon class="st1" points="64.8,0 0,0 0,140 110,140 110,25 85,0"/>
		<g>
			<polygon class="st1b" points="85,25 110,50 110,25"/>
			<polygon class="st4" points="85,25 110,25 85,0"/>
		</g>
	</g>
	<g>
		<g>
			<path class="st13" d="M93,103.3c0,2.6-2.1,4.7-4.7,4.7H22.7c-2.6,0-4.7-2.1-4.7-4.7V37.7c0-2.6,2.1-4.7,4.7-4.7h65.6
				c2.6,0,4.7,2.1,4.7,4.7V103.3z"/>
		</g>
		<g>
			<path id="path4463_1_" class="st21" d="M45.6,74.6c1.7-3.4,3.7-7.1,5.2-10.9l0,0l0.6-1.5c-2-7.7-3.3-14-2.2-18l0,0
				c0.3-1,1.5-1.7,2.8-1.7l0,0l0.8,0H53c1.8,0,2.6,2.2,2.7,3.1l0,0c0.2,1.5-0.5,3.9-0.5,3.9l0,0c0-1,0-2.6-0.6-4l0,0
				c-0.7-1.6-1.4-2.6-2.1-2.7l0,0c-0.3,0.2-0.6,0.7-0.7,1.5l0,0c-0.2,1.2-0.3,2.7-0.3,3.4l0,0c0,2.7,0.5,6.3,1.6,10l0,0
				c0.2-0.6,0.4-1.1,0.5-1.6l0,0c0.2-0.8,1.6-6.2,1.6-6.2l0,0c0,0-0.3,7.2-0.8,9.3l0,0c-0.1,0.5-0.2,0.9-0.3,1.4l0,0
				c1.7,4.9,4.5,9.2,7.9,12.3l0,0c1.3,1.2,3,2.2,4.6,3.1l0,0c3.4-0.5,6.6-0.7,9.2-0.7l0,0c3.5,0.1,6.1,0.6,7.1,1.6l0,0
				c0.5,0.5,0.7,1.1,0.8,1.8l0,0c0,0.3-0.1,0.9-0.2,1l0,0c0-0.2,0-1.1-2.8-2l0,0c-2.2-0.7-6.4-0.7-11.3-0.1l0,0
				c5.7,2.8,11.4,4.2,13.1,3.4l0,0c0.4-0.2,1-0.9,1-0.9l0,0c0,0-0.3,1.4-0.5,1.8l0,0c-0.3,0.4-0.8,0.8-1.4,1l0,0
				c-2.8,0.7-10.1-1-16.5-4.6l0,0c-7.1,1-14.9,3-21.2,5l0,0C37.7,94,33,99,29.3,97.1l0,0l-1.4-0.7c-0.6-0.3-0.6-1.1-0.5-1.7l0,0
				c0.4-2.1,3.1-5.4,8.5-8.6l0,0c0.6-0.3,3.2-1.7,3.2-1.7l0,0c0,0-1.9,1.9-2.4,2.2l0,0c-4.3,3.5-7.5,8-7.4,9.7l0,0l0,0.2
				C33,95.9,38.5,88.4,45.6,74.6 M47.8,75.7c-1.2,2.2-2.3,4.3-3.4,6.2l0,0c5.9-2.5,12.2-4.1,18.3-5.2l0,0c-0.8-0.6-1.6-1.2-2.3-1.8
				l0,0c-3.3-2.8-5.9-6.3-7.7-10l0,0C51.5,68.1,50.1,71.4,47.8,75.7"/>
		</g>
	</g>
</g>
<g id="docs" class="file-icon" data-curve="file_1">
	<polygon class="st16" points="64.8,0 0,0 0,140 110,140 110,45.2 85,0"/>
	<g>
		<polygon class="st3" points="85,25 110,50 110,25"/>
		<polygon class="st15" points="85,25 110,25 85,0"/>
	</g>
	<g>
		<line class="st6" x1="21" y1="48.5" x2="88" y2="48.5"/>
		<line class="st6" x1="21" y1="62.5" x2="88" y2="62.5"/>
		<line class="st6" x1="21" y1="77.5" x2="88" y2="77.5"/>
		<line class="st6" x1="21" y1="91.5" x2="61" y2="91.5"/>
	</g>
</g>
<g id="sheets" class="file-icon" data-curve="file_2">
	<g>
		<g>
			<polygon class="st18" points="85,0 110,25 110,140 0,140 0,0"/>
		</g>
		<polygon class="st8" points="84.5,25 109.5,50 109.5,25"/>
		<polyline class="st17" points="84.5,0 84.5,25 109.5,25 84.5,0"/>
	</g>
	<g>
		<line class="st6" x1="40.5" y1="48" x2="40.5" y2="91"/>
		<line class="st6" x1="26" y1="62.5" x2="82" y2="62.5"/>
		<rect x="25.5" y="48.5" class="st6" width="57" height="43"/>
		<line class="st6" x1="26" y1="77.5" x2="82" y2="77.5"/>
	</g>
</g>
<g id="slides" class="file-icon" data-curve="file_3">
	<polygon class="st5" points="64.8,0 0,0 0,140 110,140 110,45.2 85,0"/>
	<g>
		<polygon class="st19" points="85,25 110,50 110,25"/>
		<polygon class="st11" points="85,25 110,25 85,0"/>
	</g>
	<g>
		<path class="st12" d="M89,97H44V60h45V97z M49,89h35V68H49V89z"/>
		<g>
			<rect x="26" y="49" class="st5" width="39" height="25"/>
			<path class="st12" d="M68,80H23V43h45V80z M28,72h35V51H28V72z"/>
		</g>
	</g>
</g>
<g id="audio" class="file-icon" data-curve="file_9">
	<polyline class="st1" points="64.8,0 0,0 0,140 110,140 110,25 85,0 64.8,0"/>
	<polygon class="st1b" points="85,25 110,50 110,25"/>
	<g>
		<polygon class="st2" points="33.4,61.7 26.7,61.7 26.7,78.3 33.4,78.3 52.2,95.6 52.2,44.4"/>
		<path class="st2" d="M58.8,80.6c5.9,0,10.3-4.8,10.3-10.6c0-5.9-4.4-10.6-10.3-10.6V80.6z"/>
		<path class="st2" d="M58.8,43.1v7.1c9.9,1.1,17.4,9.6,17.4,19.8c0,10.2-7.4,18.7-17.4,19.8v7.1C72.6,95.8,83.3,84.1,83.3,70
			C83.3,55.8,72.6,44.2,58.8,43.1z"/>
	</g>
	<polyline class="st4" points="85,0 85,25 110,25 85,0"/>
</g>
<g id="w" class="file-icon" data-curve="file_10">
	<g>
		<polyline class="st16" points="64.8,0 0,0 0,140 110,140 110,25 85,0 64.8,0"/>
		<polygon class="st3" points="85,25 110,50 110,25"/>
		<polyline class="st15" points="85,0 85,25 110,25 85,0"/>
	</g>
	<g>
		<rect x="15" y="30" class="st13" width="80" height="80"/>
		<polygon class="st12" points="68.5,51.5 66.1,51.5 61.2,51.5 61.2,56.5 65.1,56.5 61.4,75 57.5,51.5 52.5,51.5 48.6,75 43.9,51.5
			36.5,51.5 45.2,88.5 50.1,88.5 55,66.3 59.9,88.5 64.8,88.5 73.5,51.5"/>
	</g>
</g>
<g id="x" class="file-icon" data-curve="file_11">
	<polyline class="st18" points="64.8,0 0,0 0,140 110,140 110,25 85,0 64.8,0"/>
	<polygon class="st8" points="85,25 110,50 110,25"/>
	<polyline class="st17" points="85,0 85,25 110,25 85,0"/>
	<g>
		<rect x="15" y="30" class="st13" width="80" height="80"/>
		<polygon class="st12" points="64.8,88.5 72.2,88.5 58.7,68.2 69.8,51.5 62.4,51.5 55,62.6 47.6,51.5 40.2,51.5 51.3,68.2
			37.8,88.5 42.7,88.5 45.1,88.5 55,88.5 55,83.5 48.4,83.5 55,73.7"/>
	</g>
</g>
<g id="p" class="file-icon" data-curve="file_12">
	<g>
		<polyline class="st10" points="64.8,0 0,0 0,140 110,140 110,25 85,0 64.8,0"/>
		<polygon class="st23" points="85,25 110,50 110,25"/>
		<polyline class="st24" points="85,0 85,25 110,25 85,0"/>
	</g>
	<g>
		<rect x="15" y="30" class="st13" width="80" height="80"/>
		<path class="st12" d="M57.5,51.5H40.2v4.9h4.9v32h7.4V76.2h4.9c7.4,0,12.3-4.9,12.3-12.3C69.8,56.5,64.8,51.5,57.5,51.5z
			 M57.5,71.2h-4.9V56.5h4.9c2.5,0,6.2,2.5,6.2,7.4C63.6,68.8,59.9,71.2,57.5,71.2z"/>
	</g>
</g>
</svg>
